<svg width="16" height="16" viewBox="0 0 16 16" fill="none" xmlns="http://www.w3.org/2000/svg">
<path d="M15.8989 2.01937C15.8113 1.9099 15.6787 1.84619 15.5385 1.84619H3.25476L2.91126 0.35775C2.86292 0.148344 2.67645 0 2.46154 0H0.461546C0.206671 0 1.52588e-05 0.206656 1.52588e-05 0.461562C1.52588e-05 0.716468 0.206671 0.923093 0.461546 0.923093H2.09439L4.42601 11.0269C4.47432 11.2363 4.66082 11.3846 4.87573 11.3846H14.1231C14.378 11.3846 14.5846 11.178 14.5846 10.9231C14.5846 10.6682 14.3779 10.4616 14.1231 10.4616H5.24292L4.88792 8.92309H14.1539C14.3698 8.92309 14.5568 8.77346 14.6042 8.56287L15.9888 2.40903C16.0195 2.27222 15.9865 2.12887 15.8989 2.01937ZM13.7846 7.99999H4.67489L3.46779 2.76925H14.9615L13.7846 7.99999Z" fill="white"/>
<path d="M6.76923 12C5.83611 12 5.07692 12.7592 5.07692 13.6923C5.07692 14.6255 5.83608 15.3846 6.76923 15.3846C7.70235 15.3846 8.46154 14.6255 8.46154 13.6923C8.46154 12.7592 7.70239 12 6.76923 12ZM6.76923 14.4616C6.34507 14.4616 6.00001 14.1165 6.00001 13.6923C6.00001 13.2682 6.34507 12.9231 6.76923 12.9231C7.19339 12.9231 7.53845 13.2682 7.53845 13.6923C7.53845 14.1165 7.19339 14.4616 6.76923 14.4616Z" fill="white"/>
<path d="M12.3077 12C11.3745 12 10.6154 12.7592 10.6154 13.6923C10.6154 14.6255 11.3745 15.3846 12.3077 15.3846C13.2408 15.3846 14 14.6255 14 13.6923C14 12.7592 13.2408 12 12.3077 12ZM12.3077 14.4616C11.8835 14.4616 11.5384 14.1165 11.5384 13.6923C11.5384 13.2682 11.8835 12.9231 12.3077 12.9231C12.7318 12.9231 13.0769 13.2682 13.0769 13.6923C13.0769 14.1165 12.7318 14.4616 12.3077 14.4616Z" fill="white"/>
</svg>
