<svg width="50" height="50" viewBox="0 0 50 50" fill="none" xmlns="http://www.w3.org/2000/svg">
<path d="M48.5118 34.3922C49.2823 34.3503 49.8947 33.7133 49.8947 32.9314C49.8947 28.7162 46.5111 25.4142 42.1917 25.4142H40.7643L39.0195 17.1328C40.7031 16.4014 41.884 14.7215 41.884 12.77C41.884 10.1487 39.754 8.0161 37.1358 8.0161H30.3863C29.5783 8.0161 28.9232 8.67196 28.9232 9.48094V11.3052H25.3268C24.5188 11.3052 23.8637 11.961 23.8637 12.77C23.8637 13.579 24.5188 14.2348 25.3268 14.2348H28.9232V16.0591C28.9232 16.8681 29.5783 17.5239 30.3863 17.5239H31.0359C29.8246 18.9564 29.0919 20.8069 29.0919 22.8265V31.1624C29.0919 31.2052 29.0572 31.2398 29.0146 31.2398H23.1044C23.0703 31.2398 23.0398 31.2171 23.0302 31.1844L21.4369 25.7935C22.721 25.4501 23.6698 24.2758 23.6698 22.8833C23.6698 19.5769 20.9832 16.8871 17.681 16.8871H4.49863C2.01816 16.887 0 18.9076 0 21.3912C0 23.6617 1.68682 25.5441 3.87148 25.8508C1.55391 27.9264 0.0924805 30.9416 0.0924805 34.2926V38.853C0.0924805 39.662 0.747559 40.3179 1.55557 40.3179H2.82148C3.50293 43.7202 6.50957 46.2915 10.1054 46.2915C13.7012 46.2915 16.7078 43.7202 17.3893 40.3179H35.2867C35.9682 43.7202 38.9748 46.2915 42.5706 46.2915C46.6671 46.2915 49.9999 42.9546 49.9999 38.853C50 37.1807 49.4457 35.6359 48.5118 34.3922ZM46.729 31.4666H43.4354C43.1515 31.4335 42.8633 31.4145 42.5707 31.4145C42.0463 31.4145 41.5348 31.47 41.0408 31.5739V28.3439H42.1918C44.3346 28.3439 46.1062 29.6337 46.729 31.4666ZM31.8493 10.9457H37.1358C38.1405 10.9457 38.9579 11.764 38.9579 12.7699C38.9579 13.7758 38.1405 14.5941 37.1358 14.5941H31.8493V10.9457ZM23.1045 34.1694H29.0146C30.6708 34.1694 32.0181 32.8205 32.0181 31.1623V22.8264C32.0181 20.3087 33.7843 18.196 36.1414 17.6654L38.1147 27.0316V32.905C36.6829 33.983 35.6518 35.5663 35.2868 37.3881H20.7409C20.0576 32.1324 15.7176 28.2003 10.3006 28.2003C7.88506 28.2003 5.7165 28.9893 4.00557 30.3458C5.41885 27.7001 8.20518 25.8955 11.4056 25.8955H18.4159L20.2247 32.0156C20.5993 33.2838 21.7836 34.1694 23.1045 34.1694ZM3.1375 37.3881C3.39316 35.8297 4.05889 34.4239 5.07695 33.3347C6.40576 31.9129 8.26084 31.1299 10.3004 31.1299C14.074 31.1299 17.1226 33.7818 17.7771 37.388H3.1375V37.3881ZM4.49863 22.9658C3.63154 22.9658 2.92607 22.2595 2.92607 21.3912C2.92607 20.5229 3.63154 19.8166 4.49863 19.8166H17.681C19.3698 19.8166 20.7437 21.1922 20.7437 22.8831C20.7313 22.9433 20.6348 22.9832 20.4552 22.9656C19.238 22.9656 19.5859 22.9656 19.3324 22.9656C17.5843 22.9658 4.50713 22.9658 4.49863 22.9658ZM10.1054 43.3617C8.13437 43.3617 6.45625 42.0868 5.84746 40.3178H14.3633C13.7545 42.0868 12.0764 43.3617 10.1054 43.3617ZM42.5707 43.3617C40.0876 43.3617 38.0675 41.3391 38.0675 38.8529C38.0675 36.3668 40.0877 34.3442 42.5707 34.3442C45.0538 34.3442 47.0739 36.3668 47.0739 38.8529C47.0739 41.3391 45.0537 43.3617 42.5707 43.3617Z" fill="#63A60E"/>
<path d="M42.5707 40.3275C43.3841 40.3275 44.0435 39.6674 44.0435 38.853C44.0435 38.0387 43.3841 37.3785 42.5707 37.3785C41.7573 37.3785 41.0979 38.0387 41.0979 38.853C41.0979 39.6674 41.7573 40.3275 42.5707 40.3275Z" fill="#63A60E"/>
<path d="M1.52443 12.6409H14.6463C15.4543 12.6409 16.1094 11.985 16.1094 11.1761C16.1094 10.3671 15.4543 9.71121 14.6463 9.71121H1.52443C0.716418 9.71121 0.0613403 10.3671 0.0613403 11.1761C0.0613403 11.985 0.716418 12.6409 1.52443 12.6409Z" fill="#63A60E"/>
<path d="M6.38496 6.63827H19.6199C20.4279 6.63827 21.083 5.98241 21.083 5.17343C21.083 4.36445 20.4279 3.70859 19.6199 3.70859H6.38496C5.57695 3.70859 4.92188 4.36445 4.92188 5.17343C4.92188 5.98241 5.57695 6.63827 6.38496 6.63827Z" fill="#63A60E"/>
</svg>
